<svg width="155" height="57" viewBox="0 0 155 57" fill="none" xmlns="http://www.w3.org/2000/svg">
<rect y="5.29218" width="32" height="32" rx="5" transform="rotate(-9.51933 0 5.29218)" fill="#555555"/>
<path d="M19.9059 22.4159C20.2873 22.352 20.6402 22.3604 20.9647 22.4412C21.3023 22.5197 21.5327 22.765 21.6559 23.177C21.7175 23.383 21.7166 23.5792 21.6532 23.7655C21.603 23.9497 21.5155 24.1131 21.3907 24.2557C21.2659 24.3983 21.1103 24.519 20.9241 24.6178C20.7511 24.7145 20.5801 24.7837 20.4114 24.8255C20.2668 24.8498 20.0103 24.8928 19.6421 24.9545C19.2871 25.014 18.886 25.0813 18.4389 25.1563C18.005 25.229 17.5579 25.304 17.0977 25.3812C16.6374 25.4584 16.2495 25.5234 15.9339 25.5763L15.7761 25.6028C15.4715 25.6404 15.1537 25.6801 14.8227 25.7221C14.5049 25.7619 14.1871 25.7611 13.8692 25.7198C13.6478 25.6893 13.4307 25.604 13.2179 25.464C13.0052 25.3239 12.8275 25.1509 12.6848 24.945C12.5948 24.8114 12.5201 24.6481 12.4607 24.4553C12.3991 24.2493 12.3463 24.0554 12.3023 23.8735C12.2561 23.6784 12.2208 23.5086 12.1966 23.3639C12.1855 23.2171 12.1788 23.1371 12.1766 23.1239L10.7709 14.741C10.7643 14.7015 10.74 14.5974 10.6982 14.4287C10.6564 14.26 10.6168 14.0638 10.5793 13.8403C10.5549 13.6145 10.5361 13.3811 10.5227 13.14C10.5224 12.8967 10.5617 12.6873 10.6404 12.5119C10.6973 12.3671 10.8177 12.2388 11.0017 12.1268C11.1989 12.0126 11.3994 11.9182 11.6031 11.8435C11.8201 11.7665 12.014 11.7137 12.185 11.685C12.3668 11.641 12.4775 11.6157 12.517 11.6091L17.1325 10.8351C17.1457 10.8329 17.2443 10.8164 17.4284 10.7855C17.6256 10.7524 17.8404 10.7434 18.0728 10.7586C18.303 10.7605 18.5321 10.7965 18.7601 10.8664C18.9881 10.9363 19.1527 11.0709 19.2537 11.2703C19.2932 11.3448 19.3229 11.4412 19.3428 11.5596C19.3736 11.6626 19.4 11.7798 19.422 11.9113C19.4419 12.0296 19.4475 12.1436 19.4388 12.2532C19.4433 12.3606 19.4368 12.4428 19.4193 12.4998C19.3559 12.6862 19.2114 12.8321 18.9857 12.9376C18.7338 13.0474 18.3645 13.1431 17.878 13.2247C17.7991 13.238 17.707 13.2534 17.6018 13.271C17.5098 13.2865 17.3586 13.3118 17.1482 13.3471C16.9487 13.367 16.6649 13.4079 16.2967 13.4696C15.9417 13.5292 15.4617 13.6096 14.8568 13.7111C14.6727 13.7419 14.4831 13.7805 14.2881 13.8267C14.1062 13.8707 13.9726 13.9202 13.8871 13.9751C13.8017 14.03 13.7426 14.121 13.7098 14.2482C13.688 14.36 13.6761 14.4904 13.6741 14.6395C13.683 14.7732 13.6984 14.9058 13.7205 15.0373C13.7425 15.1688 13.7668 15.2729 13.7931 15.3495L13.7964 15.3693L15.0198 22.1808C15.0639 22.4437 15.1594 22.6508 15.3064 22.8019C15.4513 22.9398 15.6749 22.9835 15.9773 22.9327C16.0168 22.9261 16.157 22.9161 16.3982 22.9027C16.6502 22.874 16.9614 22.8353 17.3318 22.7867C17.7154 22.7359 18.1318 22.6796 18.5811 22.6178C19.0304 22.556 19.472 22.4887 19.9059 22.4159ZM25.6657 15.0418C25.9112 15.0547 26.1327 15.1257 26.3301 15.2549C26.5407 15.3818 26.6702 15.5899 26.7187 15.8792C26.7364 15.9844 26.7463 16.0841 26.7486 16.1784C26.7618 16.2573 26.7641 16.3515 26.7555 16.4611C26.7535 16.6913 26.7 16.8963 26.595 17.0762C26.5031 17.2538 26.3322 17.3636 26.0824 17.4055L24.4683 17.6964C24.5124 18.0405 24.5698 18.423 24.6404 18.8437C24.7109 19.2645 24.7837 19.6985 24.8587 20.1456C24.9336 20.5927 25.0097 21.0463 25.0869 21.5066C25.175 21.9514 25.2533 22.3777 25.3216 22.7854C25.3503 22.9563 25.379 23.1678 25.4077 23.4199C25.4365 23.6719 25.4313 23.9229 25.392 24.1728C25.3506 24.4096 25.2654 24.6267 25.1362 24.8241C25.0071 25.0215 24.799 25.151 24.5119 25.2127C24.2007 25.2919 23.9421 25.2812 23.7359 25.1806C23.5298 25.08 23.363 24.9322 23.2357 24.7372C23.1106 24.5554 23.015 24.3483 22.949 24.1161C22.8808 23.8706 22.8291 23.6427 22.7938 23.4323L20.7629 11.3214C20.7607 11.3083 20.7508 11.2491 20.7332 11.1439C20.7133 11.0255 20.7044 10.8918 20.7065 10.7428C20.7063 10.5806 20.7193 10.4162 20.7454 10.2495C20.7825 10.0676 20.8448 9.91517 20.9324 9.79233C21.009 9.68485 21.1295 9.59705 21.2938 9.52893C21.4691 9.44546 21.629 9.3916 21.7737 9.36734C22.063 9.31883 22.3228 9.37666 22.5531 9.54083C22.7681 9.69406 22.9064 9.87366 22.9679 10.0796C23.0405 10.2703 23.1086 10.4752 23.1724 10.6943C23.3594 11.4065 23.5235 12.1429 23.6645 12.9033C23.8187 13.6616 23.9586 14.4155 24.0843 15.165L25.6657 15.0418Z" fill="white"/>
<rect x="30.4258" y="6.42578" width="32" height="32" rx="5" fill="#666666"/>
<path d="M46.3858 14.4458C47.1858 14.8724 47.7524 15.4591 48.0858 16.2058C48.4324 16.9524 48.5658 17.8458 48.4858 18.8858C48.4058 20.2191 48.0258 21.2124 47.3458 21.8658C46.6791 22.5191 45.6524 22.8458 44.2658 22.8458C43.9058 22.8458 43.5724 22.8524 43.2658 22.8658C42.9724 22.8658 42.6924 22.8458 42.4258 22.8058C42.1591 22.7658 41.8858 22.6991 41.6058 22.6058C41.3258 22.4991 41.0258 22.3391 40.7058 22.1258C40.0791 21.7124 39.6458 21.1724 39.4058 20.5058C39.1791 19.8391 39.0658 19.1524 39.0658 18.4458C39.0658 17.7391 39.1924 17.0791 39.4458 16.4658C39.6991 15.8391 40.1124 15.3058 40.6858 14.8658C41.1524 14.4924 41.6724 14.2191 42.2458 14.0458C42.8324 13.8724 43.4191 13.8124 44.0058 13.8658C44.2724 13.8924 44.4991 13.9191 44.6858 13.9458C44.8858 13.9591 45.0724 13.9858 45.2458 14.0258C45.4191 14.0658 45.5924 14.1191 45.7658 14.1858C45.9391 14.2524 46.1458 14.3391 46.3858 14.4458ZM53.1658 27.8658C53.3258 27.9991 53.5124 28.1391 53.7258 28.2858C53.9391 28.4191 54.0658 28.5991 54.1058 28.8258C54.1458 29.0124 54.1191 29.2058 54.0258 29.4058C53.9458 29.6058 53.8324 29.7658 53.6858 29.8858C53.4591 30.0724 53.2391 30.1524 53.0258 30.1258C52.8124 30.0991 52.5858 30.0324 52.3458 29.9258C51.8524 29.6991 51.3791 29.4458 50.9258 29.1658C50.4724 28.8858 50.0191 28.5924 49.5658 28.2858C49.3391 28.1391 49.1191 27.9858 48.9058 27.8258C48.6924 27.6524 48.4791 27.4924 48.2658 27.3458C48.1191 27.2391 47.9658 27.1191 47.8058 26.9858C47.6458 26.8524 47.4591 26.7991 47.2458 26.8258C47.0591 26.8391 46.9124 26.8791 46.8058 26.9458C46.6991 27.0124 46.5791 27.0991 46.4458 27.2058C46.2991 27.3124 46.1391 27.4324 45.9658 27.5658C45.8058 27.6991 45.6658 27.8191 45.5458 27.9258C45.1991 28.2191 44.8191 28.5191 44.4058 28.8258C44.0058 29.1191 43.6124 29.3658 43.2258 29.5658C43.0791 29.6458 42.9124 29.7258 42.7258 29.8058C42.5391 29.8858 42.3524 29.9458 42.1658 29.9858C41.9791 30.0391 41.7858 30.0591 41.5858 30.0458C41.3991 30.0458 41.2258 30.0058 41.0658 29.9258C40.8524 29.8191 40.6991 29.6591 40.6058 29.4458C40.5124 29.2324 40.4991 29.0124 40.5658 28.7858C40.6324 28.5591 40.7791 28.3591 41.0058 28.1858C41.2458 28.0124 41.4458 27.8591 41.6058 27.7258C42.1124 27.3391 42.6591 26.9391 43.2458 26.5258C43.8324 26.0991 44.3858 25.6991 44.9058 25.3258C45.1324 25.1524 45.3591 25.0058 45.5858 24.8858C45.8124 24.7524 46.0391 24.5924 46.2658 24.4058C46.6524 24.1124 47.0391 23.9391 47.4258 23.8858C47.8124 23.8191 48.2391 23.9858 48.7058 24.3858L53.1658 27.8658ZM53.6658 22.2058C53.6658 22.2058 53.6591 22.2524 53.6458 22.3458C53.6324 22.4391 53.6058 22.5458 53.5658 22.6658C53.5258 22.7858 53.4658 22.9124 53.3858 23.0458C53.3058 23.1658 53.1991 23.2658 53.0658 23.3458C52.8791 23.4524 52.6924 23.5058 52.5058 23.5058C52.2791 23.5058 52.0591 23.4324 51.8458 23.2858C51.6991 23.1791 51.5858 23.0391 51.5058 22.8658C51.3991 22.6658 51.3258 22.4458 51.2858 22.2058C51.2591 21.9658 51.2391 21.7191 51.2258 21.4658C51.2258 21.2124 51.2324 20.9658 51.2458 20.7258C51.2591 20.4724 51.2658 20.2324 51.2658 20.0058C51.2791 19.4324 51.2858 18.7991 51.2858 18.1058C51.2858 17.4124 51.2858 16.7858 51.2858 16.2258V15.9658C51.2724 15.8191 51.2658 15.6658 51.2658 15.5058C51.2791 15.3324 51.3058 15.1724 51.3458 15.0258C51.3991 14.8258 51.5191 14.6124 51.7058 14.3858C51.8124 14.2524 51.9591 14.1591 52.1458 14.1058C52.3458 14.0391 52.5591 14.0191 52.7858 14.0458C53.1858 14.1124 53.4524 14.2858 53.5858 14.5658C53.6658 14.7391 53.6991 14.9524 53.6858 15.2058C53.6858 15.4591 53.6791 15.6124 53.6658 15.6658V22.2058ZM46.1058 19.1058C46.1058 18.8124 46.0924 18.5391 46.0658 18.2858C46.0391 18.0191 45.9791 17.7791 45.8858 17.5658C45.8058 17.3391 45.6791 17.1391 45.5058 16.9658C45.3324 16.7924 45.1058 16.6524 44.8258 16.5458C44.5191 16.4391 44.1858 16.3858 43.8258 16.3858C43.4658 16.3858 43.1258 16.4524 42.8058 16.5858C42.4858 16.7058 42.2058 16.8991 41.9658 17.1658C41.7258 17.4191 41.5724 17.7524 41.5058 18.1658C41.4658 18.4458 41.4658 18.7324 41.5058 19.0258C41.5591 19.3058 41.6591 19.5658 41.8058 19.8058C41.9658 20.0324 42.1791 20.2258 42.4458 20.3858C42.7258 20.5458 43.0724 20.6458 43.4858 20.6858C43.7658 20.7124 44.0458 20.7124 44.3258 20.6858C44.6058 20.6458 44.8658 20.5658 45.1058 20.4458C45.3458 20.3258 45.5524 20.1591 45.7258 19.9458C45.8991 19.7191 46.0258 19.4391 46.1058 19.1058Z" fill="white"/>
<rect x="62.2114" y="1.42578" width="32" height="32" rx="5" transform="rotate(6.79403 62.2114 1.42578)" fill="#555555"/>
<path d="M81.1607 21.4078C81.3741 21.4198 81.5918 21.4525 81.8137 21.5058C82.0504 21.5474 82.2634 21.6198 82.4525 21.7228C82.6416 21.8259 82.7863 21.964 82.8865 22.1371C83 22.3118 83.0402 22.5381 83.0071 22.8161C82.9676 23.1471 82.8251 23.3853 82.5795 23.5306C82.3355 23.6626 82.0499 23.7495 81.7227 23.791C81.4103 23.821 81.0812 23.822 80.7354 23.7943C80.4044 23.7548 80.133 23.7225 79.9211 23.6973C79.8549 23.6894 79.7946 23.6889 79.74 23.6958C79.6871 23.6895 79.6275 23.6824 79.5613 23.6745C79.5288 24.0601 79.4905 24.4382 79.4463 24.8089C79.4154 25.1812 79.3603 25.5305 79.2812 25.8567C79.2115 26.1035 79.1161 26.3406 78.995 26.5679C78.8756 26.7819 78.6946 26.9483 78.4522 27.0671C78.2378 27.1759 77.9982 27.2145 77.7334 27.1829C77.4686 27.1514 77.2374 27.0634 77.0398 26.919C76.8803 26.7926 76.766 26.6246 76.697 26.4149C76.6412 26.2069 76.6045 26.0078 76.5869 25.8177C76.5778 25.6689 76.5901 25.5092 76.6238 25.3387C76.6576 25.1682 76.6765 25.0093 76.6806 24.8621L76.8604 23.3527L74.2413 23.0206C74.2057 23.4326 74.1731 23.8181 74.1438 24.1772C74.116 24.523 74.0552 24.8648 73.9612 25.2028C73.8915 25.4496 73.7961 25.6866 73.6751 25.9139C73.5556 26.1279 73.3746 26.2944 73.1322 26.4132C72.9178 26.5219 72.6782 26.5605 72.4134 26.529C72.1486 26.4974 71.9174 26.4095 71.7198 26.2651C71.5603 26.1386 71.446 25.9706 71.377 25.761C71.3212 25.5529 71.2845 25.3538 71.2669 25.1637C71.2578 25.015 71.2701 24.8553 71.3038 24.6848C71.3376 24.5142 71.3565 24.3553 71.3606 24.2081L71.5404 22.6988L69.9294 22.527C69.6249 22.4907 69.3384 22.4163 69.0698 22.3037C68.8012 22.1912 68.6033 21.993 68.4759 21.7093C68.3571 21.4669 68.3127 21.2199 68.3427 20.9684C68.3859 20.7184 68.512 20.5051 68.721 20.3286C68.8263 20.2337 68.9615 20.1693 69.1267 20.1353C69.2919 20.1012 69.4481 20.0863 69.5953 20.0904C69.7574 20.0828 69.8913 20.0854 69.9973 20.098C70.1164 20.1122 70.1826 20.1201 70.1958 20.1216L81.1607 21.4078ZM76.4455 15.5086L75.2453 16.4532C74.9209 16.6966 74.5973 16.9333 74.2745 17.1634C73.9516 17.3935 73.6222 17.6228 73.2861 17.8513C73.2565 17.8746 73.2269 17.8979 73.1972 17.9213C73.1692 17.9313 73.1403 17.948 73.1107 17.9714C72.8323 18.1665 72.5524 18.3748 72.2709 18.5964C72.0026 18.8196 71.69 18.9636 71.3332 19.0285C71.087 19.0663 70.8296 19.0289 70.561 18.9164C70.2924 18.8038 70.0972 18.6396 69.9752 18.4236C69.8882 18.2521 69.8542 18.0869 69.8731 17.9281C69.892 17.7692 69.9366 17.6201 70.0069 17.4807C70.0921 17.3298 70.1896 17.187 70.2997 17.0524C70.4097 16.9178 70.5248 16.7972 70.6449 16.6907C71.0973 16.2746 71.5598 15.8866 72.0323 15.5266C72.5197 15.155 73.0121 14.7974 73.5096 14.4539C73.6695 14.3521 73.8539 14.2129 74.0629 14.0364C74.2867 13.8482 74.5032 13.6659 74.7122 13.4893C74.9524 13.2763 75.1992 13.064 75.4527 12.8525C75.4625 12.5448 75.4906 12.2528 75.537 11.9763C75.5786 11.7396 75.6401 11.5052 75.7214 11.2732C75.8028 11.0412 75.9249 10.861 76.0879 10.7327C76.279 10.5944 76.5225 10.5227 76.8185 10.5177C77.1161 10.4994 77.3669 10.536 77.5708 10.6274C77.8643 10.7564 78.0439 10.9389 78.1098 11.175C78.1889 11.4127 78.2302 11.6862 78.2336 11.9954C78.2169 12.2486 78.1909 12.467 78.1555 12.6508C78.135 12.8229 78.185 13.0236 78.3054 13.2528C78.3924 13.4243 78.4934 13.5907 78.6084 13.7521C78.7367 13.9151 78.8584 14.0773 78.9734 14.2387C79.3753 14.8103 79.7796 15.362 80.1862 15.8938C80.606 16.4272 81.0243 16.9739 81.441 17.5338C81.5809 17.7116 81.7095 17.9283 81.8268 18.184C81.944 18.4396 82.0141 18.6964 82.0371 18.9543C82.0749 19.2005 82.0407 19.4314 81.9344 19.647C81.843 19.8509 81.6504 20.0025 81.3566 20.1018C81.1469 20.1708 80.9502 20.1877 80.7664 20.1524C80.5842 20.1038 80.4118 20.0295 80.2492 19.9296C80.0881 19.8164 79.936 19.6842 79.7929 19.5328C79.663 19.3831 79.5464 19.2349 79.443 19.0883L76.4455 15.5086Z" fill="white"/>
<rect x="88.4258" y="9.26477" width="32" height="32" rx="5" transform="rotate(-5.0899 88.4258 9.26477)" fill="#666666"/>
<path d="M112.013 15.7377C112.09 15.8513 112.128 15.9817 112.128 16.129C112.14 16.2618 112.166 16.4001 112.205 16.5438L113.257 28.357C113.274 28.5429 113.285 28.7361 113.289 28.9365C113.306 29.1224 113.309 29.3095 113.299 29.4978C113.298 29.7924 113.199 30.0354 113.002 30.227C112.806 30.4319 112.555 30.5346 112.247 30.5353C111.992 30.5312 111.792 30.462 111.646 30.3278C111.501 30.2068 111.387 30.0496 111.303 29.8563C111.232 29.6619 111.18 29.4523 111.146 29.2277C111.112 28.9899 111.085 28.7647 111.066 28.5522L110.63 23.6516L109.215 23.7776L109.646 28.6184C109.69 28.802 109.712 28.974 109.712 29.1346C109.712 29.2819 109.719 29.4285 109.732 29.5746C109.722 29.7629 109.695 29.9192 109.653 30.0435C109.61 30.1677 109.566 30.2721 109.52 30.3565C109.414 30.5132 109.258 30.6409 109.052 30.7395C108.86 30.8369 108.668 30.8607 108.476 30.8109C108.257 30.7501 108.081 30.652 107.948 30.5166C107.816 30.3811 107.708 30.23 107.627 30.0633C107.557 29.8821 107.507 29.6991 107.477 29.5144C107.446 29.3164 107.423 29.1244 107.406 28.9384C107.395 28.8189 107.373 28.7205 107.34 28.6432C107.318 28.5514 107.304 28.4723 107.298 28.4059L106.322 17.4493C106.313 17.343 106.31 17.2362 106.314 17.1288C106.331 17.0201 106.336 16.926 106.329 16.8463C106.318 16.7268 106.321 16.6127 106.339 16.5041C106.355 16.3822 106.372 16.2736 106.39 16.1783C106.408 16.0829 106.44 15.9931 106.486 15.9086C106.532 15.8242 106.584 15.7326 106.643 15.6337C106.701 15.5348 106.768 15.4619 106.844 15.415C106.933 15.3669 107.03 15.3248 107.134 15.2888C107.274 15.2093 107.42 15.1963 107.572 15.2497C107.641 15.2704 107.71 15.2977 107.78 15.3316C107.862 15.351 107.92 15.3928 107.952 15.4568C108.051 15.515 108.138 15.5875 108.212 15.6746C108.299 15.7472 108.362 15.8553 108.402 15.9991C108.439 16.1162 108.478 16.2467 108.517 16.3904C108.557 16.5341 108.584 16.6923 108.6 16.8649L109.001 21.3671L110.415 21.2411L110.005 16.6394C109.994 16.5198 109.984 16.4003 109.973 16.2808C109.976 16.1601 109.985 16.0388 110.001 15.9169C110.033 15.6731 110.095 15.4734 110.189 15.3179C110.273 15.2166 110.36 15.1353 110.448 15.0739C110.536 15.0125 110.653 14.9753 110.799 14.9623C110.943 14.9227 111.09 14.923 111.241 14.9631C111.391 14.9899 111.516 15.0457 111.618 15.1303C111.705 15.2162 111.78 15.3033 111.842 15.3915C111.916 15.4786 111.973 15.5939 112.013 15.7377ZM105.816 28.2167C105.898 28.2362 105.968 28.2701 106.026 28.3185C106.097 28.3657 106.168 28.4195 106.241 28.48C106.41 28.5721 106.505 28.7376 106.526 28.9767C106.561 29.0673 106.57 29.1669 106.552 29.2755C106.547 29.3696 106.535 29.4511 106.514 29.5199C106.457 29.632 106.405 29.7237 106.358 29.7948C106.309 29.8527 106.254 29.9111 106.193 29.9701C106.115 30.0038 106.033 30.0513 105.944 30.1127C105.855 30.1609 105.75 30.1903 105.631 30.2009C105.54 30.2357 105.443 30.2712 105.339 30.3072C105.235 30.3432 105.137 30.3654 105.044 30.3737L102.116 30.6345C101.996 30.6451 101.863 30.6503 101.715 30.6501C101.58 30.6353 101.44 30.6345 101.293 30.6475C101.174 30.6581 101.04 30.6567 100.892 30.6431C100.743 30.6296 100.615 30.6142 100.506 30.5971C100.234 30.5544 99.9853 30.4628 99.7586 30.3224C99.6597 30.2642 99.5663 30.1922 99.4783 30.1064C99.4025 30.006 99.3248 29.8858 99.2454 29.7456C99.1152 29.6367 99.0419 29.4893 99.0253 29.3034C98.9881 29.1862 98.9587 29.0818 98.9371 28.99C98.9156 28.8982 98.8874 28.807 98.8525 28.7164L97.9955 19.0945C97.9619 19.0172 97.9337 18.926 97.9109 18.8209C97.9003 18.7014 97.8896 18.5819 97.879 18.4624C97.8973 18.367 97.9077 18.259 97.9103 18.1383C97.913 18.0176 97.9228 17.9029 97.9399 17.7943C97.921 17.5818 97.963 17.3773 98.066 17.1807C98.1265 17.1084 98.1809 17.0433 98.2293 16.9854C98.291 16.9264 98.3605 16.8801 98.4378 16.8464C98.5998 16.7115 98.7738 16.6358 98.9597 16.6192C99.0503 16.5844 99.1288 16.564 99.1952 16.5581C99.2604 16.5389 99.3317 16.5124 99.409 16.4788L103.114 16.1488C103.21 16.167 103.311 16.1781 103.418 16.1819C103.538 16.1713 103.645 16.1751 103.741 16.1934C103.98 16.1721 104.198 16.2129 104.394 16.3159C104.616 16.4032 104.77 16.5501 104.855 16.7567C104.89 16.8473 104.918 16.9385 104.94 17.0303C104.975 17.1209 104.983 17.2205 104.966 17.3291C104.978 17.4619 104.98 17.5621 104.973 17.6297C104.979 17.6961 104.972 17.7637 104.951 17.8325C104.858 17.988 104.691 18.1434 104.45 18.2987C104.357 18.307 104.212 18.3333 104.016 18.3776C103.831 18.4074 103.599 18.4348 103.32 18.4596L101.288 18.6406C101.102 18.6572 100.946 18.7045 100.819 18.7828C100.766 18.7875 100.718 18.852 100.676 18.9763C100.655 19.045 100.634 19.1072 100.612 19.1627C100.59 19.2181 100.582 19.2791 100.588 19.3455L100.655 20.1025L101.368 27.4282C101.385 27.6141 101.398 27.7668 101.409 27.8863C101.432 27.9914 101.479 28.0675 101.55 28.1147C101.653 28.226 101.831 28.2704 102.084 28.2479L102.821 28.1823C102.967 28.1692 103.114 28.1695 103.263 28.1831C103.423 28.1821 103.59 28.174 103.762 28.1586L104.739 28.0717C104.818 28.0646 104.899 28.0641 104.979 28.0703C105.072 28.062 105.166 28.067 105.262 28.0853C105.434 28.0699 105.619 28.1137 105.816 28.2167Z" fill="white"/>
<rect x="122.951" y="1.42578" width="32" height="32" rx="5" transform="rotate(8.12924 122.951 1.42578)" fill="#555555"/>
<path d="M136.14 13.4719C136.14 13.4719 136.119 13.5699 136.078 13.766C136.049 13.964 136.017 14.1884 135.981 14.4392C135.946 14.69 135.913 14.921 135.882 15.1322C135.866 15.3452 135.855 15.465 135.851 15.4914C135.908 15.5668 136.011 15.6959 136.16 15.8789C136.311 16.0486 136.438 16.1947 136.542 16.3173C136.658 16.4417 136.773 16.5793 136.887 16.7302C137.015 16.8697 137.141 17.0225 137.266 17.1884C137.345 17.294 137.417 17.3986 137.483 17.5023C137.551 17.5929 137.614 17.6758 137.67 17.7512C137.885 18.0379 138.097 18.3443 138.306 18.6705C138.516 18.9967 138.645 19.3182 138.694 19.635C138.717 19.7594 138.704 19.8924 138.657 20.0338C138.61 20.1752 138.506 20.2883 138.346 20.3732C138.103 20.4731 137.856 20.5052 137.605 20.4694C137.315 20.4279 137.046 20.3289 136.799 20.1724C136.552 20.0159 136.358 19.8669 136.216 19.7255C135.992 19.5049 135.788 19.2805 135.605 19.0524C135.424 18.811 135.243 18.5696 135.062 18.3283C134.938 18.1624 134.796 17.9738 134.638 17.7626C134.481 17.5382 134.321 17.3402 134.157 17.1686L133.546 17.6269C133.441 17.7061 133.335 17.7853 133.229 17.8645C133.126 17.9304 133.028 18.004 132.935 18.0851C132.737 18.2454 132.532 18.4113 132.319 18.5829C132.108 18.7413 131.871 18.8893 131.609 19.027C131.011 19.3456 130.475 19.471 129.999 19.4032C129.933 19.3937 129.874 19.3853 129.821 19.3777C129.782 19.3721 129.731 19.3513 129.668 19.3155C129.388 19.208 129.213 19.0619 129.145 18.8771C129.074 18.7187 129.064 18.549 129.117 18.368C129.183 18.1888 129.266 18.0323 129.366 17.8984C129.492 17.7683 129.631 17.6467 129.782 17.5336C129.934 17.4072 130.087 17.2809 130.24 17.1546C130.377 17.0395 130.589 16.8811 130.873 16.6794C131.173 16.4663 131.473 16.2532 131.773 16.0401C132.074 15.8139 132.353 15.6112 132.607 15.432C132.862 15.2529 133.019 15.1407 133.08 15.0954L133.368 13.0759L132.101 12.8949C131.942 12.8723 131.757 12.8525 131.544 12.8355C131.332 12.8054 131.123 12.762 130.916 12.7054C130.722 12.6508 130.544 12.5716 130.384 12.4679C130.226 12.3509 130.121 12.1878 130.07 11.9785C130.025 11.8239 130.002 11.6523 130.002 11.4638C130.015 11.2771 130.053 11.1074 130.115 10.9547C130.194 10.7774 130.331 10.669 130.525 10.6294C130.721 10.5766 130.907 10.5492 131.083 10.5473C131.109 10.5511 131.215 10.5662 131.399 10.5926C131.597 10.6209 131.809 10.651 132.033 10.6831C132.257 10.7151 132.468 10.7453 132.666 10.7736C132.864 10.8019 132.984 10.8122 133.026 10.8047L137.659 11.4665C138.187 11.5419 138.624 11.6381 138.971 11.755C139.331 11.8738 139.605 12.0812 139.791 12.3772C139.846 12.4658 139.871 12.5771 139.865 12.711C139.872 12.8467 139.853 12.9853 139.805 13.1267C139.773 13.2568 139.716 13.3766 139.633 13.4859C139.563 13.5972 139.472 13.6717 139.359 13.7094C139.247 13.7339 139.115 13.7622 138.963 13.7943C138.812 13.8131 138.683 13.8216 138.575 13.8197C138.388 13.8065 138.196 13.7858 137.998 13.7575C137.815 13.7179 137.631 13.6849 137.447 13.6585L136.14 13.4719ZM141.924 25.733C141.924 25.733 141.962 25.7519 142.037 25.7896C142.126 25.8292 142.218 25.8895 142.314 25.9706C142.413 26.0385 142.5 26.1318 142.578 26.2506C142.657 26.3562 142.7 26.4769 142.708 26.6126C142.702 27.1236 142.561 27.5008 142.283 27.744C142.099 27.9062 141.911 27.9939 141.721 28.0071C141.53 28.0203 141.428 28.0259 141.415 28.024L131.496 26.6071C130.955 26.5298 130.544 26.3837 130.265 26.1688C129.984 25.967 129.866 25.7143 129.909 25.4107L130.302 22.6587C130.313 22.5795 130.321 22.4795 130.325 22.3589C130.342 22.2401 130.36 22.1147 130.378 21.9827C130.399 21.8375 130.418 21.7055 130.435 21.5867C130.465 21.4698 130.486 21.3717 130.497 21.2925C130.563 21.0191 130.727 20.8136 130.989 20.6759C131.251 20.5383 131.534 20.4911 131.838 20.5345C131.904 20.5439 131.982 20.5618 132.073 20.5882C132.178 20.6033 132.262 20.6288 132.324 20.6646C132.488 20.7419 132.614 20.8541 132.701 21.0012C132.789 21.1351 132.849 21.285 132.879 21.4509C132.909 21.6168 132.917 21.7931 132.904 21.9798C132.893 22.1533 132.884 22.3136 132.876 22.4607C132.868 22.5134 132.851 22.6388 132.822 22.8368C132.796 23.0216 132.767 23.2262 132.735 23.4506C132.704 23.6618 132.676 23.8598 132.65 24.0446C132.625 24.2162 132.61 24.3218 132.604 24.3614C132.642 24.3802 132.745 24.4151 132.913 24.466C133.096 24.5056 133.431 24.5603 133.92 24.63C134.342 24.6904 134.719 24.7375 135.051 24.7714C135.383 24.8054 135.555 24.8233 135.569 24.8252L141.924 25.733ZM140.346 17.689C139.967 17.6079 139.626 17.5391 139.325 17.4825C139.025 17.4128 138.808 17.2336 138.674 16.9451C138.614 16.8018 138.598 16.6312 138.626 16.4332C138.654 16.2352 138.692 16.0655 138.739 15.9241C138.8 15.7845 138.889 15.6761 139.008 15.5988C139.129 15.5083 139.326 15.4489 139.599 15.4206C139.654 15.4149 139.773 15.4253 139.958 15.4517C140.145 15.4649 140.345 15.48 140.558 15.4969C140.784 15.5158 140.99 15.5384 141.174 15.5648C141.361 15.578 141.481 15.5884 141.534 15.5959L141.833 13.4972C141.841 13.3502 141.855 13.204 141.876 13.0588C141.91 12.9155 141.957 12.7741 142.017 12.6346C142.059 12.5327 142.099 12.4375 142.139 12.3489C142.179 12.2603 142.252 12.1697 142.36 12.0774C142.484 11.9604 142.642 11.8888 142.835 11.8624C143.04 11.8379 143.253 11.8548 143.474 11.9133C143.887 12.0396 144.134 12.2433 144.215 12.5242C144.272 12.6939 144.289 12.8985 144.269 13.138C144.263 13.3661 144.256 13.5066 144.249 13.5594L143.101 21.5978L143.081 21.595C143.079 21.6082 143.066 21.6535 143.041 21.7308C143.017 21.8081 142.976 21.9033 142.92 22.0164C142.865 22.1164 142.79 22.2201 142.693 22.3276C142.597 22.435 142.478 22.519 142.334 22.5793C142.134 22.6585 141.942 22.6849 141.757 22.6585C141.533 22.6265 141.325 22.5227 141.135 22.3474C140.992 22.2192 140.898 22.0711 140.855 21.9033C140.796 21.7468 140.764 21.5941 140.759 21.4451C140.753 21.2962 140.754 21.1481 140.762 21.0011L141.217 17.8134L140.346 17.689Z" fill="white"/>
<path d="M14.094 49.8078C14.106 50.0058 14.103 50.2098 14.085 50.4198C14.073 50.6298 14.052 50.8338 14.022 51.0318C13.962 51.3738 13.851 51.7068 13.689 52.0308C13.527 52.3548 13.29 52.6308 12.978 52.8588C12.654 53.0988 12.285 53.2638 11.871 53.3538C11.457 53.4378 11.046 53.4888 10.638 53.5068C10.5 53.5188 10.359 53.5218 10.215 53.5158C10.077 53.5158 9.942 53.5008 9.81 53.4708C9.702 53.4528 9.621 53.4198 9.567 53.3718C9.537 53.3538 9.513 53.3298 9.495 53.2998C9.477 53.2698 9.462 53.2398 9.45 53.2098C9.432 53.1798 9.417 53.1498 9.405 53.1198C9.399 53.0838 9.39 53.0478 9.378 53.0118C9.372 52.9818 9.366 52.9548 9.36 52.9308C9.36 52.9008 9.36 52.8738 9.36 52.8498V47.7108C9.36 47.6688 9.36 47.6298 9.36 47.5938C9.36 47.5578 9.366 47.5218 9.378 47.4858C9.39 47.4018 9.408 47.3328 9.432 47.2788C9.456 47.2068 9.489 47.1558 9.531 47.1258C9.567 47.0958 9.603 47.0748 9.639 47.0628C9.675 47.0448 9.708 47.0298 9.738 47.0178C9.774 47.0058 9.81 47.0058 9.846 47.0178C9.888 47.0238 9.933 47.0148 9.981 46.9908L11.484 47.0268C11.88 47.0388 12.234 47.1318 12.546 47.3058C12.858 47.4738 13.125 47.6898 13.347 47.9538C13.569 48.2178 13.743 48.5148 13.869 48.8448C13.995 49.1688 14.07 49.4898 14.094 49.8078ZM12.42 51.5178C12.534 51.3378 12.618 51.1308 12.672 50.8968C12.726 50.6628 12.75 50.4258 12.744 50.1858C12.738 49.9398 12.705 49.7028 12.645 49.4748C12.585 49.2408 12.501 49.0338 12.393 48.8538C12.309 48.7218 12.201 48.6138 12.069 48.5298C11.937 48.4458 11.79 48.3828 11.628 48.3408C11.466 48.2928 11.292 48.2598 11.106 48.2418C10.926 48.2238 10.749 48.2148 10.575 48.2148C10.581 48.3888 10.584 48.5568 10.584 48.7188C10.584 48.8808 10.584 49.0518 10.584 49.2318C10.578 49.4478 10.575 49.6578 10.575 49.8618C10.575 50.0658 10.575 50.2638 10.575 50.4558V52.2918C10.761 52.2858 10.938 52.2768 11.106 52.2648C11.28 52.2468 11.445 52.2108 11.601 52.1568C11.763 52.1028 11.91 52.0278 12.042 51.9318C12.18 51.8298 12.306 51.6918 12.42 51.5178ZM22.6403 52.8138C22.6463 52.8498 22.6493 52.8858 22.6493 52.9218C22.6553 52.9518 22.6583 52.9878 22.6583 53.0298C22.6583 53.1018 22.6373 53.1678 22.5953 53.2278C22.5773 53.2578 22.5533 53.2878 22.5233 53.3178C22.4933 53.3418 22.4573 53.3628 22.4153 53.3808C22.2653 53.4648 22.1063 53.4948 21.9383 53.4708C21.8543 53.4468 21.7793 53.4078 21.7133 53.3538C21.7013 53.3418 21.6923 53.3358 21.6863 53.3358C21.6803 53.3298 21.6743 53.3208 21.6683 53.3088C21.6623 53.3028 21.6563 53.2968 21.6503 53.2908C21.6443 53.2788 21.6353 53.2698 21.6233 53.2638C21.5933 53.2338 21.5693 53.2068 21.5513 53.1828C21.5333 53.1528 21.5153 53.1228 21.4973 53.0928C21.4853 53.0628 21.4703 53.0358 21.4523 53.0118C21.4403 52.9818 21.4253 52.9518 21.4073 52.9218C21.3953 52.8978 21.3833 52.8768 21.3713 52.8588C21.3593 52.8348 21.3503 52.8108 21.3443 52.7868C21.3203 52.7328 21.3053 52.6848 21.2993 52.6428L21.1103 52.2018C20.6963 52.2018 20.2823 52.2048 19.8683 52.2108C19.4603 52.2108 19.0493 52.2078 18.6353 52.2018L18.4463 52.6428C18.4343 52.6668 18.4253 52.6908 18.4193 52.7148C18.4193 52.7388 18.4133 52.7628 18.4013 52.7868C18.3893 52.8108 18.3773 52.8348 18.3653 52.8588C18.3593 52.8768 18.3503 52.8978 18.3383 52.9218C18.3203 52.9518 18.3023 52.9818 18.2843 53.0118C18.2723 53.0358 18.2573 53.0628 18.2393 53.0928C18.2273 53.1228 18.2123 53.1528 18.1943 53.1828C18.1763 53.2068 18.1523 53.2338 18.1223 53.2638C18.1103 53.2698 18.1013 53.2788 18.0953 53.2908C18.0893 53.2968 18.0833 53.3028 18.0773 53.3088C18.0713 53.3208 18.0653 53.3298 18.0593 53.3358C18.0533 53.3358 18.0443 53.3418 18.0323 53.3538C17.9663 53.4078 17.8913 53.4468 17.8073 53.4708C17.6393 53.4948 17.4803 53.4648 17.3303 53.3808C17.2883 53.3628 17.2523 53.3418 17.2223 53.3178C17.1923 53.2878 17.1683 53.2578 17.1503 53.2278C17.1083 53.1678 17.0873 53.1018 17.0873 53.0298C17.0873 52.9878 17.0873 52.9518 17.0873 52.9218C17.0933 52.8858 17.0993 52.8498 17.1053 52.8138C17.1173 52.7598 17.1323 52.7058 17.1503 52.6518C17.1683 52.5978 17.1773 52.5708 17.1773 52.5708L19.0493 47.9628L19.1033 47.8188C19.1153 47.7828 19.1303 47.7498 19.1483 47.7198C19.1663 47.6898 19.1813 47.6538 19.1933 47.6118C19.2233 47.5338 19.2563 47.4648 19.2923 47.4048C19.3103 47.3688 19.3313 47.3358 19.3553 47.3058C19.3793 47.2758 19.4033 47.2458 19.4273 47.2158C19.4633 47.1678 19.5143 47.1288 19.5803 47.0988C19.6643 47.0688 19.7603 47.0538 19.8683 47.0538C19.9823 47.0538 20.0813 47.0688 20.1653 47.0988C20.2313 47.1288 20.2823 47.1678 20.3183 47.2158C20.3603 47.2698 20.4053 47.3328 20.4533 47.4048C20.4893 47.4648 20.5223 47.5338 20.5523 47.6118C20.5643 47.6538 20.5793 47.6898 20.5973 47.7198C20.6153 47.7498 20.6303 47.7828 20.6423 47.8188L20.6963 47.9628L22.5683 52.5708C22.5683 52.5708 22.5773 52.5978 22.5953 52.6518C22.6133 52.7058 22.6283 52.7598 22.6403 52.8138ZM20.5073 50.6088C20.4293 50.4348 20.3483 50.2548 20.2643 50.0688C20.1863 49.8828 20.1023 49.6938 20.0123 49.5018C19.9883 49.4478 19.9643 49.3938 19.9403 49.3398C19.9163 49.2798 19.8923 49.2228 19.8683 49.1688C19.8503 49.2228 19.8293 49.2798 19.8053 49.3398C19.7813 49.3938 19.7573 49.4478 19.7333 49.5018C19.6433 49.6938 19.5563 49.8828 19.4723 50.0688C19.3943 50.2548 19.3163 50.4348 19.2383 50.6088L19.0763 51.0048H20.6693L20.5073 50.6088ZM27.3133 48.1338L27.2953 49.5468H27.6553C27.9013 49.5408 28.1203 49.5378 28.3123 49.5378C28.5043 49.5378 28.7173 49.5408 28.9513 49.5468H28.9963C29.0683 49.5468 29.1373 49.5498 29.2033 49.5558C29.2753 49.5558 29.3443 49.5558 29.4103 49.5558C29.4823 49.5618 29.5513 49.5738 29.6173 49.5918C29.6833 49.6038 29.7493 49.6188 29.8153 49.6368C29.9173 49.6728 30.0013 49.7268 30.0673 49.7988C30.1273 49.8768 30.1573 49.9638 30.1573 50.0598C30.1573 50.0898 30.1573 50.1258 30.1573 50.1678C30.1573 50.2038 30.1513 50.2368 30.1393 50.2668C30.1273 50.3328 30.0883 50.3928 30.0223 50.4468C29.9923 50.4888 29.9353 50.5188 29.8513 50.5368C29.7733 50.5608 29.6953 50.5758 29.6173 50.5818C29.5333 50.5998 29.4493 50.6088 29.3653 50.6088H28.9423L27.2773 50.6178L27.2593 52.3818L29.0503 52.3998H29.4733C29.5213 52.3998 29.5663 52.3998 29.6083 52.3998C29.6503 52.3998 29.6893 52.4028 29.7253 52.4088C29.7733 52.4208 29.8153 52.4298 29.8513 52.4358C29.8933 52.4358 29.9323 52.4418 29.9683 52.4538C30.0403 52.4778 30.1003 52.5108 30.1483 52.5528C30.2083 52.6128 30.2473 52.6758 30.2653 52.7418C30.2713 52.7718 30.2743 52.8048 30.2743 52.8408C30.2803 52.8708 30.2803 52.9038 30.2743 52.9398C30.2743 53.0358 30.2443 53.1228 30.1843 53.2008C30.1123 53.2848 30.0283 53.3388 29.9323 53.3628C29.8063 53.4168 29.6683 53.4438 29.5183 53.4438C29.4523 53.4498 29.3833 53.4528 29.3113 53.4528C29.2393 53.4528 29.1703 53.4558 29.1043 53.4618H29.0503C28.5823 53.4738 28.0963 53.4738 27.5923 53.4618C27.4723 53.4618 27.3763 53.4588 27.3043 53.4528C27.2323 53.4528 27.1663 53.4528 27.1063 53.4528C27.0523 53.4528 26.9953 53.4528 26.9353 53.4528C26.8753 53.4528 26.7973 53.4528 26.7013 53.4528C26.5633 53.4648 26.4493 53.4408 26.3593 53.3808C26.2933 53.3388 26.2423 53.2818 26.2063 53.2098C26.1883 53.1918 26.1793 53.1738 26.1793 53.1558C26.1733 53.1438 26.1673 53.1348 26.1613 53.1288C26.1553 53.1228 26.1493 53.1138 26.1433 53.1018C26.1313 53.0718 26.1223 53.0418 26.1163 53.0118C26.1103 52.9758 26.1073 52.9428 26.1073 52.9128C26.1013 52.8828 26.0953 52.8528 26.0893 52.8228C26.0893 52.7928 26.0863 52.7628 26.0803 52.7328V52.5888C26.0803 52.5648 26.0803 52.5408 26.0803 52.5168C26.0863 52.4928 26.0893 52.4688 26.0893 52.4448V51.7428L26.1073 50.4468V49.2498C26.1073 49.0338 26.1073 48.8418 26.1073 48.6738C26.1133 48.5058 26.1193 48.3228 26.1253 48.1248V48.0798C26.1313 48.0138 26.1343 47.9538 26.1343 47.8998C26.1403 47.8398 26.1433 47.7798 26.1433 47.7198C26.1493 47.5998 26.1823 47.4828 26.2423 47.3688C26.2663 47.3208 26.2903 47.2788 26.3143 47.2428C26.3443 47.2068 26.3833 47.1768 26.4313 47.1528C26.5213 47.0988 26.6143 47.0718 26.7103 47.0718C26.7583 47.0718 26.7943 47.0748 26.8183 47.0808V47.0718C26.9263 47.0718 27.0133 47.0718 27.0793 47.0718C27.1453 47.0718 27.2083 47.0718 27.2683 47.0718C27.3343 47.0718 27.4033 47.0718 27.4753 47.0718C27.5473 47.0658 27.6463 47.0628 27.7723 47.0628C28.0123 47.0568 28.2403 47.0538 28.4563 47.0538C28.6723 47.0538 28.8943 47.0568 29.1223 47.0628H29.1583C29.2243 47.0688 29.2933 47.0718 29.3653 47.0718C29.4373 47.0718 29.5063 47.0748 29.5723 47.0808C29.6383 47.0808 29.7043 47.0898 29.7703 47.1078C29.8363 47.1198 29.9023 47.1378 29.9683 47.1618C30.0703 47.1918 30.1543 47.2428 30.2203 47.3148C30.2743 47.3988 30.3013 47.4828 30.3013 47.5668C30.3013 47.6028 30.3013 47.6388 30.3013 47.6748C30.3013 47.7048 30.2953 47.7348 30.2833 47.7648C30.2773 47.8248 30.2413 47.8878 30.1753 47.9538C30.1513 47.9658 30.1243 47.9808 30.0943 47.9988C30.0703 48.0168 30.0403 48.0318 30.0043 48.0438C29.9683 48.0558 29.9293 48.0648 29.8873 48.0708C29.8513 48.0708 29.8153 48.0738 29.7793 48.0798C29.7313 48.0918 29.6863 48.0978 29.6443 48.0978C29.6083 48.0978 29.5663 48.0978 29.5183 48.0978H29.1133L27.3133 48.1068V48.1338ZM38.5708 47.2788C38.6308 47.3568 38.6608 47.4348 38.6608 47.5128C38.6668 47.5488 38.6668 47.5938 38.6608 47.6478C38.6608 47.7018 38.6578 47.7438 38.6518 47.7738C38.6338 47.8338 38.5918 47.8938 38.5258 47.9538C38.5078 47.9718 38.4868 47.9898 38.4628 48.0078C38.4388 48.0198 38.4088 48.0318 38.3728 48.0438C38.3368 48.0558 38.3008 48.0648 38.2648 48.0708C38.2288 48.0708 38.1898 48.0738 38.1478 48.0798C38.1058 48.0858 38.0668 48.0918 38.0308 48.0978C37.9948 48.0978 37.9558 48.0978 37.9138 48.0978H37.4008V48.2508C37.3948 48.7908 37.4038 49.3308 37.4278 49.8708C37.4578 50.4108 37.4548 50.9508 37.4188 51.4908C37.4008 51.6708 37.3738 51.8568 37.3378 52.0488C37.3018 52.2348 37.2418 52.4118 37.1578 52.5798C37.0798 52.7418 36.9748 52.8918 36.8428 53.0298C36.7108 53.1678 36.5428 53.2758 36.3388 53.3538C36.1468 53.4258 35.9368 53.4768 35.7088 53.5068C35.4808 53.5368 35.2498 53.5398 35.0158 53.5158C34.7878 53.4918 34.5688 53.4408 34.3588 53.3628C34.1488 53.2848 33.9718 53.1768 33.8278 53.0388C33.7498 52.9668 33.6778 52.8798 33.6118 52.7778C33.5458 52.6698 33.5008 52.5588 33.4768 52.4448C33.4528 52.3248 33.4588 52.2108 33.4948 52.1028C33.5308 51.9888 33.6148 51.8958 33.7468 51.8238C33.8608 51.7578 33.9628 51.7428 34.0528 51.7788C34.1488 51.8148 34.2388 51.8718 34.3228 51.9498C34.4128 52.0278 34.5028 52.1088 34.5928 52.1928C34.6888 52.2768 34.7938 52.3308 34.9078 52.3548C35.1538 52.4148 35.3548 52.4178 35.5108 52.3638C35.6668 52.3038 35.7898 52.2108 35.8798 52.0848C35.9698 51.9588 36.0328 51.8058 36.0688 51.6258C36.1108 51.4458 36.1348 51.2628 36.1408 51.0768C36.1528 50.8908 36.1558 50.7108 36.1498 50.5368C36.1438 50.3628 36.1438 50.2158 36.1498 50.0958C36.1558 49.7778 36.1558 49.4658 36.1498 49.1598C36.1438 48.8538 36.1408 48.5418 36.1408 48.2238V48.1878C36.1468 48.1758 36.1498 48.1578 36.1498 48.1338H36.1228C36.0868 48.1278 36.0118 48.1248 35.8978 48.1248C35.7838 48.1188 35.6608 48.1158 35.5288 48.1158C35.3968 48.1158 35.2708 48.1158 35.1508 48.1158C35.0368 48.1098 34.9618 48.1068 34.9258 48.1068H34.7998V48.0978C34.7518 48.0918 34.7038 48.0828 34.6558 48.0708C34.6078 48.0588 34.5598 48.0468 34.5118 48.0348C34.3978 47.9988 34.3108 47.9418 34.2508 47.8638C34.2208 47.8338 34.1968 47.7858 34.1788 47.7198C34.1668 47.6538 34.1608 47.5968 34.1608 47.5488C34.1608 47.5188 34.1608 47.4858 34.1608 47.4498C34.1608 47.4138 34.1668 47.3808 34.1788 47.3508C34.1908 47.2848 34.2328 47.2248 34.3048 47.1708C34.3528 47.1348 34.4098 47.1078 34.4758 47.0898C34.5178 47.0778 34.5598 47.0688 34.6018 47.0628C34.6438 47.0568 34.6888 47.0508 34.7368 47.0448C34.7788 47.0388 34.8208 47.0358 34.8628 47.0358C34.9048 47.0358 34.9498 47.0358 34.9978 47.0358H35.8618C35.8978 47.0358 35.9398 47.0358 35.9878 47.0358C36.0358 47.0358 36.0898 47.0328 36.1498 47.0268C36.3838 47.0268 36.6148 47.0268 36.8428 47.0268C37.0708 47.0268 37.2928 47.0298 37.5088 47.0358H37.5628C37.6288 47.0358 37.6918 47.0388 37.7518 47.0448C37.8178 47.0448 37.8838 47.0448 37.9498 47.0448C38.0878 47.0508 38.2168 47.0778 38.3368 47.1258C38.4328 47.1498 38.5108 47.2008 38.5708 47.2788ZM43.269 48.1338L43.251 49.5468H43.611C43.857 49.5408 44.076 49.5378 44.268 49.5378C44.46 49.5378 44.673 49.5408 44.907 49.5468H44.952C45.024 49.5468 45.093 49.5498 45.159 49.5558C45.231 49.5558 45.3 49.5558 45.366 49.5558C45.438 49.5618 45.507 49.5738 45.573 49.5918C45.639 49.6038 45.705 49.6188 45.771 49.6368C45.873 49.6728 45.957 49.7268 46.023 49.7988C46.083 49.8768 46.113 49.9638 46.113 50.0598C46.113 50.0898 46.113 50.1258 46.113 50.1678C46.113 50.2038 46.107 50.2368 46.095 50.2668C46.083 50.3328 46.044 50.3928 45.978 50.4468C45.948 50.4888 45.891 50.5188 45.807 50.5368C45.729 50.5608 45.651 50.5758 45.573 50.5818C45.489 50.5998 45.405 50.6088 45.321 50.6088H44.898L43.233 50.6178L43.215 52.3818L45.006 52.3998H45.429C45.477 52.3998 45.522 52.3998 45.564 52.3998C45.606 52.3998 45.645 52.4028 45.681 52.4088C45.729 52.4208 45.771 52.4298 45.807 52.4358C45.849 52.4358 45.888 52.4418 45.924 52.4538C45.996 52.4778 46.056 52.5108 46.104 52.5528C46.164 52.6128 46.203 52.6758 46.221 52.7418C46.227 52.7718 46.23 52.8048 46.23 52.8408C46.236 52.8708 46.236 52.9038 46.23 52.9398C46.23 53.0358 46.2 53.1228 46.14 53.2008C46.068 53.2848 45.984 53.3388 45.888 53.3628C45.762 53.4168 45.624 53.4438 45.474 53.4438C45.408 53.4498 45.339 53.4528 45.267 53.4528C45.195 53.4528 45.126 53.4558 45.06 53.4618H45.006C44.538 53.4738 44.052 53.4738 43.548 53.4618C43.428 53.4618 43.332 53.4588 43.26 53.4528C43.188 53.4528 43.122 53.4528 43.062 53.4528C43.008 53.4528 42.951 53.4528 42.891 53.4528C42.831 53.4528 42.753 53.4528 42.657 53.4528C42.519 53.4648 42.405 53.4408 42.315 53.3808C42.249 53.3388 42.198 53.2818 42.162 53.2098C42.144 53.1918 42.135 53.1738 42.135 53.1558C42.129 53.1438 42.123 53.1348 42.117 53.1288C42.111 53.1228 42.105 53.1138 42.099 53.1018C42.087 53.0718 42.078 53.0418 42.072 53.0118C42.066 52.9758 42.063 52.9428 42.063 52.9128C42.057 52.8828 42.051 52.8528 42.045 52.8228C42.045 52.7928 42.042 52.7628 42.036 52.7328V52.5888C42.036 52.5648 42.036 52.5408 42.036 52.5168C42.042 52.4928 42.045 52.4688 42.045 52.4448V51.7428L42.063 50.4468V49.2498C42.063 49.0338 42.063 48.8418 42.063 48.6738C42.069 48.5058 42.075 48.3228 42.081 48.1248V48.0798C42.087 48.0138 42.09 47.9538 42.09 47.8998C42.096 47.8398 42.099 47.7798 42.099 47.7198C42.105 47.5998 42.138 47.4828 42.198 47.3688C42.222 47.3208 42.246 47.2788 42.27 47.2428C42.3 47.2068 42.339 47.1768 42.387 47.1528C42.477 47.0988 42.57 47.0718 42.666 47.0718C42.714 47.0718 42.75 47.0748 42.774 47.0808V47.0718C42.882 47.0718 42.969 47.0718 43.035 47.0718C43.101 47.0718 43.164 47.0718 43.224 47.0718C43.29 47.0718 43.359 47.0718 43.431 47.0718C43.503 47.0658 43.602 47.0628 43.728 47.0628C43.968 47.0568 44.196 47.0538 44.412 47.0538C44.628 47.0538 44.85 47.0568 45.078 47.0628H45.114C45.18 47.0688 45.249 47.0718 45.321 47.0718C45.393 47.0718 45.462 47.0748 45.528 47.0808C45.594 47.0808 45.66 47.0898 45.726 47.1078C45.792 47.1198 45.858 47.1378 45.924 47.1618C46.026 47.1918 46.11 47.2428 46.176 47.3148C46.23 47.3988 46.257 47.4828 46.257 47.5668C46.257 47.6028 46.257 47.6388 46.257 47.6748C46.257 47.7048 46.251 47.7348 46.239 47.7648C46.233 47.8248 46.197 47.8878 46.131 47.9538C46.107 47.9658 46.08 47.9808 46.05 47.9988C46.026 48.0168 45.996 48.0318 45.96 48.0438C45.924 48.0558 45.885 48.0648 45.843 48.0708C45.807 48.0708 45.771 48.0738 45.735 48.0798C45.687 48.0918 45.642 48.0978 45.6 48.0978C45.564 48.0978 45.522 48.0978 45.474 48.0978H45.069L43.269 48.1068V48.1338ZM51.0926 47.2698C51.4946 47.1198 51.8576 47.0538 52.1816 47.0718C52.5116 47.0898 52.8056 47.1738 53.0636 47.3238C53.3216 47.4678 53.5406 47.6628 53.7206 47.9088C53.9066 48.1548 54.0566 48.4308 54.1706 48.7368C54.2606 48.9648 54.3296 49.2048 54.3776 49.4568C54.4256 49.7088 54.4526 49.9608 54.4586 50.2128C54.4706 50.4588 54.4616 50.7018 54.4316 50.9418C54.4076 51.1818 54.3656 51.4038 54.3056 51.6078C54.2696 51.7458 54.2276 51.8718 54.1796 51.9858C54.1316 52.0998 54.0746 52.2138 54.0086 52.3278C53.8586 52.5858 53.6636 52.7958 53.4236 52.9578C53.1896 53.1198 52.9316 53.2338 52.6496 53.2998C52.4576 53.3478 52.2596 53.3718 52.0556 53.3718C51.8516 53.3658 51.6506 53.3388 51.4526 53.2908C51.2546 53.2368 51.0626 53.1618 50.8766 53.0658C50.6966 52.9638 50.5316 52.8378 50.3816 52.6878C50.1956 52.5078 50.0426 52.3008 49.9226 52.0668C49.8026 51.8268 49.7096 51.5778 49.6436 51.3198C49.5776 51.0558 49.5356 50.7918 49.5176 50.5278C49.4996 50.2638 49.4996 50.0118 49.5176 49.7718C49.5356 49.5498 49.5776 49.3128 49.6436 49.0608C49.7156 48.8088 49.8176 48.5658 49.9496 48.3318C50.0816 48.0978 50.2406 47.8878 50.4266 47.7018C50.6186 47.5098 50.8406 47.3658 51.0926 47.2698ZM53.1986 51.1218C53.2706 50.8398 53.3006 50.5218 53.2886 50.1678C53.2766 49.8138 53.2196 49.4808 53.1176 49.1688C53.0516 48.9768 52.9676 48.8088 52.8656 48.6648C52.7696 48.5148 52.6526 48.4008 52.5146 48.3228C52.3826 48.2448 52.2266 48.2058 52.0466 48.2058C51.8666 48.2058 51.6656 48.2598 51.4436 48.3678C51.3116 48.4338 51.1976 48.5238 51.1016 48.6378C51.0116 48.7518 50.9366 48.8808 50.8766 49.0248C50.8226 49.1688 50.7776 49.3188 50.7416 49.4748C50.7116 49.6308 50.6936 49.7808 50.6876 49.9248C50.6756 50.0808 50.6726 50.2458 50.6786 50.4198C50.6846 50.5878 50.7026 50.7588 50.7326 50.9328C50.7686 51.1008 50.8166 51.2628 50.8766 51.4188C50.9366 51.5688 51.0176 51.7038 51.1196 51.8238C51.2756 52.0038 51.4556 52.1298 51.6596 52.2018C51.8696 52.2678 52.0766 52.2768 52.2806 52.2288C52.6106 52.1568 52.8626 51.9378 53.0366 51.5718C53.1086 51.4398 53.1626 51.2898 53.1986 51.1218ZM62.791 52.7418C62.785 52.8438 62.77 52.9518 62.746 53.0658C62.728 53.1798 62.671 53.2728 62.575 53.3448C62.503 53.4048 62.422 53.4408 62.332 53.4528C62.242 53.4648 62.152 53.4588 62.062 53.4348C61.978 53.4168 61.897 53.3868 61.819 53.3448C61.741 53.2968 61.678 53.2398 61.63 53.1738C61.426 52.9218 61.237 52.6638 61.063 52.3998C60.895 52.1298 60.724 51.8598 60.55 51.5898L59.794 50.4468C59.692 50.2848 59.584 50.1048 59.47 49.9068C59.356 49.7028 59.239 49.5138 59.119 49.3398L59.092 52.7778V52.8588C59.092 52.9548 59.074 53.0508 59.038 53.1468C59.008 53.2368 58.954 53.3148 58.876 53.3808C58.816 53.4288 58.738 53.4618 58.642 53.4798C58.492 53.5098 58.366 53.5008 58.264 53.4528C58.168 53.4048 58.09 53.3388 58.03 53.2548C57.976 53.1708 57.937 53.0748 57.913 52.9668C57.895 52.8528 57.892 52.7418 57.904 52.6338V52.4808L57.922 51.7788L57.931 50.4738C57.937 50.2818 57.94 50.0868 57.94 49.8888C57.94 49.6848 57.94 49.4778 57.94 49.2678C57.934 49.0098 57.934 48.7368 57.94 48.4488C57.952 48.1608 57.964 47.8908 57.976 47.6388C57.988 47.5008 58.021 47.3838 58.075 47.2878C58.099 47.2038 58.162 47.1318 58.264 47.0718C58.33 47.0298 58.414 47.0028 58.516 46.9908C58.624 46.9788 58.717 46.9818 58.795 46.9998C58.825 47.0118 58.855 47.0268 58.885 47.0448C58.915 47.0568 58.945 47.0718 58.975 47.0898C59.005 47.1138 59.032 47.1378 59.056 47.1618C59.086 47.1858 59.113 47.2128 59.137 47.2428C59.167 47.2728 59.194 47.3058 59.218 47.3418C59.242 47.3718 59.266 47.4018 59.29 47.4318C59.308 47.4678 59.326 47.5008 59.344 47.5308C59.362 47.5608 59.383 47.5908 59.407 47.6208L59.506 47.7648L61.585 51.0408V50.4468C61.585 50.2548 61.582 50.0598 61.576 49.8618C61.576 49.6578 61.573 49.4478 61.567 49.2318C61.567 48.9798 61.567 48.7098 61.567 48.4218C61.573 48.1338 61.582 47.8638 61.594 47.6118C61.594 47.5098 61.624 47.3928 61.684 47.2608C61.714 47.1828 61.765 47.1198 61.837 47.0718C61.909 47.0238 61.99 46.9908 62.08 46.9728C62.17 46.9548 62.26 46.9548 62.35 46.9728C62.44 46.9908 62.518 47.0268 62.584 47.0808C62.602 47.0988 62.62 47.1198 62.638 47.1438C62.656 47.1678 62.671 47.1948 62.683 47.2248C62.713 47.3028 62.731 47.3718 62.737 47.4318C62.755 47.5158 62.764 47.5908 62.764 47.6568C62.764 48.4068 62.764 49.1718 62.764 49.9518C62.77 50.7318 62.776 51.4968 62.782 52.2468C62.782 52.3308 62.785 52.4148 62.791 52.4988C62.797 52.5768 62.797 52.6578 62.791 52.7418ZM69.082 49.2228C69.184 49.1988 69.286 49.2048 69.388 49.2408C69.496 49.2768 69.595 49.3368 69.685 49.4208C69.727 49.4628 69.757 49.5138 69.775 49.5738C69.799 49.6338 69.811 49.6968 69.811 49.7628C69.811 49.8348 69.799 49.9128 69.775 49.9968C69.757 50.0748 69.73 50.1348 69.694 50.1768C69.646 50.2308 69.583 50.2728 69.505 50.3028C69.427 50.3328 69.352 50.3538 69.28 50.3658C69.208 50.3718 69.145 50.3748 69.091 50.3748C69.043 50.3748 69.016 50.3748 69.01 50.3748L67.246 50.3838C67.174 50.3898 67.099 50.3958 67.021 50.4018C66.949 50.4018 66.877 50.3988 66.805 50.3928C66.733 50.3808 66.664 50.3628 66.598 50.3388C66.538 50.3088 66.481 50.2698 66.427 50.2218C66.361 50.1558 66.31 50.0928 66.274 50.0328C66.238 49.9668 66.22 49.8918 66.22 49.8078C66.22 49.7058 66.247 49.6068 66.301 49.5108C66.361 49.4088 66.442 49.3398 66.544 49.3038C66.67 49.2498 66.799 49.2258 66.931 49.2318C67.069 49.2318 67.207 49.2288 67.345 49.2228H69.082ZM77.9617 51.9138C78.0397 52.0878 78.0427 52.2588 77.9707 52.4268C77.8987 52.5888 77.7847 52.7388 77.6287 52.8768C77.4727 53.0148 77.2927 53.1348 77.0887 53.2368C76.8907 53.3388 76.7017 53.4108 76.5217 53.4528C76.3237 53.4948 76.1137 53.5128 75.8917 53.5068C75.6757 53.5068 75.4567 53.4798 75.2347 53.4258C75.0187 53.3778 74.8057 53.3058 74.5957 53.2098C74.3917 53.1078 74.2027 52.9848 74.0287 52.8408C73.8187 52.6668 73.6537 52.4598 73.5337 52.2198C73.4197 51.9738 73.3357 51.7128 73.2817 51.4368C73.2277 51.1608 73.1977 50.8848 73.1917 50.6088C73.1917 50.3268 73.2007 50.0628 73.2187 49.8168C73.2367 49.5948 73.2817 49.3638 73.3537 49.1238C73.4257 48.8838 73.5247 48.6498 73.6507 48.4218C73.7827 48.1878 73.9387 47.9718 74.1187 47.7738C74.3047 47.5758 74.5207 47.4078 74.7667 47.2698C74.9527 47.1618 75.1597 47.0898 75.3877 47.0538C75.6217 47.0118 75.8557 47.0028 76.0897 47.0268C76.3297 47.0448 76.5547 47.0958 76.7647 47.1798C76.9807 47.2578 77.1637 47.3658 77.3137 47.5038C77.4097 47.5878 77.5087 47.7048 77.6107 47.8548C77.7187 48.0048 77.7967 48.1578 77.8447 48.3138C77.8927 48.4698 77.8927 48.6168 77.8447 48.7548C77.8027 48.8868 77.6827 48.9768 77.4847 49.0248C77.4007 49.0488 77.3257 49.0548 77.2597 49.0428C77.1937 49.0248 77.1337 48.9978 77.0797 48.9618C77.0257 48.9198 76.9747 48.8718 76.9267 48.8178C76.8787 48.7638 76.8337 48.7098 76.7917 48.6558C76.6477 48.4818 76.4797 48.3648 76.2877 48.3048C76.0957 48.2388 75.9037 48.2238 75.7117 48.2598C75.5257 48.2898 75.3487 48.3678 75.1807 48.4938C75.0187 48.6138 74.8927 48.7698 74.8027 48.9618C74.7067 49.1658 74.6287 49.3908 74.5687 49.6368C74.5147 49.8768 74.4847 50.1228 74.4787 50.3748C74.4727 50.6208 74.4937 50.8608 74.5417 51.0948C74.5957 51.3288 74.6857 51.5358 74.8117 51.7158C74.9077 51.8598 75.0247 51.9768 75.1627 52.0668C75.3067 52.1568 75.4597 52.2198 75.6217 52.2558C75.7837 52.2918 75.9457 52.2978 76.1077 52.2738C76.2757 52.2498 76.4377 52.1958 76.5937 52.1118C76.6417 52.0878 76.6927 52.0548 76.7467 52.0128C76.8067 51.9648 76.8667 51.9168 76.9267 51.8688C76.9867 51.8208 77.0467 51.7758 77.1067 51.7338C77.1727 51.6918 77.2417 51.6618 77.3137 51.6438C77.4217 51.6078 77.5387 51.6108 77.6647 51.6528C77.7967 51.6948 77.8957 51.7818 77.9617 51.9138ZM82.7667 47.2698C83.1687 47.1198 83.5317 47.0538 83.8557 47.0718C84.1857 47.0898 84.4797 47.1738 84.7377 47.3238C84.9957 47.4678 85.2147 47.6628 85.3947 47.9088C85.5807 48.1548 85.7307 48.4308 85.8447 48.7368C85.9347 48.9648 86.0037 49.2048 86.0517 49.4568C86.0997 49.7088 86.1267 49.9608 86.1327 50.2128C86.1447 50.4588 86.1357 50.7018 86.1057 50.9418C86.0817 51.1818 86.0397 51.4038 85.9797 51.6078C85.9437 51.7458 85.9017 51.8718 85.8537 51.9858C85.8057 52.0998 85.7487 52.2138 85.6827 52.3278C85.5327 52.5858 85.3377 52.7958 85.0977 52.9578C84.8637 53.1198 84.6057 53.2338 84.3237 53.2998C84.1317 53.3478 83.9337 53.3718 83.7297 53.3718C83.5257 53.3658 83.3247 53.3388 83.1267 53.2908C82.9287 53.2368 82.7367 53.1618 82.5507 53.0658C82.3707 52.9638 82.2057 52.8378 82.0557 52.6878C81.8697 52.5078 81.7167 52.3008 81.5967 52.0668C81.4767 51.8268 81.3837 51.5778 81.3177 51.3198C81.2517 51.0558 81.2097 50.7918 81.1917 50.5278C81.1737 50.2638 81.1737 50.0118 81.1917 49.7718C81.2097 49.5498 81.2517 49.3128 81.3177 49.0608C81.3897 48.8088 81.4917 48.5658 81.6237 48.3318C81.7557 48.0978 81.9147 47.8878 82.1007 47.7018C82.2927 47.5098 82.5147 47.3658 82.7667 47.2698ZM84.8727 51.1218C84.9447 50.8398 84.9747 50.5218 84.9627 50.1678C84.9507 49.8138 84.8937 49.4808 84.7917 49.1688C84.7257 48.9768 84.6417 48.8088 84.5397 48.6648C84.4437 48.5148 84.3267 48.4008 84.1887 48.3228C84.0567 48.2448 83.9007 48.2058 83.7207 48.2058C83.5407 48.2058 83.3397 48.2598 83.1177 48.3678C82.9857 48.4338 82.8717 48.5238 82.7757 48.6378C82.6857 48.7518 82.6107 48.8808 82.5507 49.0248C82.4967 49.1688 82.4517 49.3188 82.4157 49.4748C82.3857 49.6308 82.3677 49.7808 82.3617 49.9248C82.3497 50.0808 82.3467 50.2458 82.3527 50.4198C82.3587 50.5878 82.3767 50.7588 82.4067 50.9328C82.4427 51.1008 82.4907 51.2628 82.5507 51.4188C82.6107 51.5688 82.6917 51.7038 82.7937 51.8238C82.9497 52.0038 83.1297 52.1298 83.3337 52.2018C83.5437 52.2678 83.7507 52.2768 83.9547 52.2288C84.2847 52.1568 84.5367 51.9378 84.7107 51.5718C84.7827 51.4398 84.8367 51.2898 84.8727 51.1218ZM95.2258 52.7778C95.2198 52.8498 95.2108 52.9248 95.1988 53.0028C95.1868 53.0808 95.1658 53.1528 95.1358 53.2188C95.1058 53.2908 95.0668 53.3448 95.0188 53.3808C94.9528 53.4408 94.8748 53.4738 94.7848 53.4798C94.7008 53.5098 94.6198 53.5188 94.5418 53.5068C94.4638 53.4948 94.3918 53.4738 94.3258 53.4438C94.2418 53.3898 94.1788 53.3268 94.1368 53.2548C94.1008 53.1768 94.0738 53.0958 94.0558 53.0118C94.0378 52.9278 94.0288 52.8408 94.0288 52.7508C94.0288 52.6608 94.0288 52.5768 94.0288 52.4988V51.7968L94.0198 50.4198C94.0198 50.3238 94.0198 50.2488 94.0198 50.1948C94.0198 50.1408 94.0198 50.0928 94.0198 50.0508C94.0198 50.0028 94.0168 49.9518 94.0108 49.8978C94.0108 49.8378 94.0108 49.7538 94.0108 49.6458C94.0108 49.6278 94.0108 49.5978 94.0108 49.5558C94.0168 49.5078 94.0138 49.3848 94.0018 49.1868C93.7678 49.5768 93.5728 49.8918 93.4168 50.1318C93.2668 50.3658 93.1378 50.5488 93.0298 50.6808C92.9278 50.8068 92.8378 50.8938 92.7598 50.9418C92.6818 50.9838 92.6008 51.0078 92.5168 51.0138C92.4688 51.0198 92.4208 51.0108 92.3728 50.9868C92.3248 50.9628 92.2768 50.9328 92.2288 50.8968C92.1868 50.8608 92.1448 50.8248 92.1028 50.7888C92.0668 50.7468 92.0368 50.7078 92.0128 50.6718C91.8688 50.4918 91.7068 50.2758 91.5268 50.0238C91.3468 49.7718 91.1608 49.4658 90.9688 49.1058C90.9688 49.1118 90.9658 49.2108 90.9598 49.4028C90.9598 49.5948 90.9598 49.8348 90.9598 50.1228C90.9598 50.4048 90.9568 50.7108 90.9508 51.0408C90.9508 51.3648 90.9478 51.6678 90.9418 51.9498C90.9418 52.2318 90.9388 52.4688 90.9328 52.6608C90.9268 52.8468 90.9208 52.9398 90.9148 52.9398C90.9148 53.0418 90.8908 53.1378 90.8428 53.2278C90.7948 53.3118 90.7288 53.3808 90.6448 53.4348C90.5668 53.4888 90.4738 53.5188 90.3658 53.5248C90.2578 53.5308 90.1408 53.5008 90.0148 53.4348C89.9368 53.3868 89.8768 53.3178 89.8348 53.2278C89.7988 53.1378 89.7748 53.0538 89.7628 52.9758C89.7568 52.8918 89.7508 52.8108 89.7448 52.7328C89.7448 52.6548 89.7448 52.5738 89.7448 52.4898L89.7538 51.7878L89.7628 50.4018V49.1958C89.7628 48.6738 89.7808 48.1608 89.8168 47.6568C89.8168 47.5908 89.8228 47.5308 89.8348 47.4768C89.8528 47.4168 89.8738 47.3598 89.8978 47.3058C89.9458 47.2098 90.0088 47.1378 90.0868 47.0898C90.1768 47.0358 90.2728 47.0088 90.3748 47.0088C90.4168 47.0088 90.4558 47.0118 90.4918 47.0178C90.5338 47.0178 90.5728 47.0208 90.6088 47.0268C90.7288 47.0508 90.8308 47.1228 90.9148 47.2428C91.0048 47.3568 91.0888 47.4558 91.1668 47.5398C91.2148 47.5938 91.2658 47.6598 91.3198 47.7378C91.3738 47.8158 91.4278 47.8968 91.4818 47.9808C91.5358 48.0648 91.5868 48.1458 91.6348 48.2238C91.6828 48.3018 91.7248 48.3708 91.7608 48.4308C91.9168 48.6828 92.0548 48.9138 92.1748 49.1238C92.3008 49.3338 92.4178 49.5138 92.5258 49.6638C92.5438 49.6458 92.5648 49.6218 92.5888 49.5918C92.6128 49.5558 92.6368 49.5198 92.6608 49.4838C92.6908 49.4418 92.7148 49.4028 92.7328 49.3668C92.7568 49.3308 92.7748 49.3008 92.7868 49.2768C92.8468 49.1808 92.9068 49.0878 92.9668 48.9978C93.0268 48.9018 93.0898 48.8028 93.1558 48.7008C93.2278 48.5928 93.2998 48.4758 93.3718 48.3498C93.4498 48.2238 93.5398 48.0798 93.6418 47.9178C93.6838 47.8458 93.7378 47.7588 93.8038 47.6568C93.8698 47.5548 93.9448 47.4558 94.0288 47.3598C94.1128 47.2638 94.1998 47.1828 94.2898 47.1168C94.3858 47.0448 94.4818 47.0088 94.5778 47.0088C94.6258 47.0088 94.6678 47.0118 94.7038 47.0178C94.7398 47.0178 94.7758 47.0208 94.8118 47.0268C94.8838 47.0328 94.9528 47.0658 95.0188 47.1258C95.0668 47.1738 95.1028 47.2248 95.1268 47.2788C95.1508 47.3568 95.1658 47.4228 95.1718 47.4768C95.1778 47.5188 95.1808 47.5578 95.1808 47.5938C95.1868 47.6298 95.1898 47.6658 95.1898 47.7018C95.1898 48.0378 95.1928 48.3708 95.1988 48.7008C95.2048 49.0308 95.2078 49.3638 95.2078 49.6998C95.2078 50.1078 95.2078 50.5278 95.2078 50.9598C95.2138 51.3918 95.2168 51.8118 95.2168 52.2198C95.2168 52.3038 95.2198 52.3938 95.2258 52.4898C95.2318 52.5858 95.2318 52.6818 95.2258 52.7778ZM104.315 52.7778C104.309 52.8498 104.3 52.9248 104.288 53.0028C104.276 53.0808 104.255 53.1528 104.225 53.2188C104.195 53.2908 104.156 53.3448 104.108 53.3808C104.042 53.4408 103.964 53.4738 103.874 53.4798C103.79 53.5098 103.709 53.5188 103.631 53.5068C103.553 53.4948 103.481 53.4738 103.415 53.4438C103.331 53.3898 103.268 53.3268 103.226 53.2548C103.19 53.1768 103.163 53.0958 103.145 53.0118C103.127 52.9278 103.118 52.8408 103.118 52.7508C103.118 52.6608 103.118 52.5768 103.118 52.4988V51.7968L103.109 50.4198C103.109 50.3238 103.109 50.2488 103.109 50.1948C103.109 50.1408 103.109 50.0928 103.109 50.0508C103.109 50.0028 103.106 49.9518 103.1 49.8978C103.1 49.8378 103.1 49.7538 103.1 49.6458C103.1 49.6278 103.1 49.5978 103.1 49.5558C103.106 49.5078 103.103 49.3848 103.091 49.1868C102.857 49.5768 102.662 49.8918 102.506 50.1318C102.356 50.3658 102.227 50.5488 102.119 50.6808C102.017 50.8068 101.927 50.8938 101.849 50.9418C101.771 50.9838 101.69 51.0078 101.606 51.0138C101.558 51.0198 101.51 51.0108 101.462 50.9868C101.414 50.9628 101.366 50.9328 101.318 50.8968C101.276 50.8608 101.234 50.8248 101.192 50.7888C101.156 50.7468 101.126 50.7078 101.102 50.6718C100.958 50.4918 100.796 50.2758 100.616 50.0238C100.436 49.7718 100.25 49.4658 100.058 49.1058C100.058 49.1118 100.055 49.2108 100.049 49.4028C100.049 49.5948 100.049 49.8348 100.049 50.1228C100.049 50.4048 100.046 50.7108 100.04 51.0408C100.04 51.3648 100.037 51.6678 100.031 51.9498C100.031 52.2318 100.028 52.4688 100.022 52.6608C100.016 52.8468 100.01 52.9398 100.004 52.9398C100.004 53.0418 99.9804 53.1378 99.9324 53.2278C99.8844 53.3118 99.8184 53.3808 99.7344 53.4348C99.6564 53.4888 99.5634 53.5188 99.4554 53.5248C99.3474 53.5308 99.2304 53.5008 99.1044 53.4348C99.0264 53.3868 98.9664 53.3178 98.9244 53.2278C98.8884 53.1378 98.8644 53.0538 98.8524 52.9758C98.8464 52.8918 98.8404 52.8108 98.8344 52.7328C98.8344 52.6548 98.8344 52.5738 98.8344 52.4898L98.8434 51.7878L98.8524 50.4018V49.1958C98.8524 48.6738 98.8704 48.1608 98.9064 47.6568C98.9064 47.5908 98.9124 47.5308 98.9244 47.4768C98.9424 47.4168 98.9634 47.3598 98.9874 47.3058C99.0354 47.2098 99.0984 47.1378 99.1764 47.0898C99.2664 47.0358 99.3624 47.0088 99.4644 47.0088C99.5064 47.0088 99.5454 47.0118 99.5814 47.0178C99.6234 47.0178 99.6624 47.0208 99.6984 47.0268C99.8184 47.0508 99.9204 47.1228 100.004 47.2428C100.094 47.3568 100.178 47.4558 100.256 47.5398C100.304 47.5938 100.355 47.6598 100.409 47.7378C100.463 47.8158 100.517 47.8968 100.571 47.9808C100.625 48.0648 100.676 48.1458 100.724 48.2238C100.772 48.3018 100.814 48.3708 100.85 48.4308C101.006 48.6828 101.144 48.9138 101.264 49.1238C101.39 49.3338 101.507 49.5138 101.615 49.6638C101.633 49.6458 101.654 49.6218 101.678 49.5918C101.702 49.5558 101.726 49.5198 101.75 49.4838C101.78 49.4418 101.804 49.4028 101.822 49.3668C101.846 49.3308 101.864 49.3008 101.876 49.2768C101.936 49.1808 101.996 49.0878 102.056 48.9978C102.116 48.9018 102.179 48.8028 102.245 48.7008C102.317 48.5928 102.389 48.4758 102.461 48.3498C102.539 48.2238 102.629 48.0798 102.731 47.9178C102.773 47.8458 102.827 47.7588 102.893 47.6568C102.959 47.5548 103.034 47.4558 103.118 47.3598C103.202 47.2638 103.289 47.1828 103.379 47.1168C103.475 47.0448 103.571 47.0088 103.667 47.0088C103.715 47.0088 103.757 47.0118 103.793 47.0178C103.829 47.0178 103.865 47.0208 103.901 47.0268C103.973 47.0328 104.042 47.0658 104.108 47.1258C104.156 47.1738 104.192 47.2248 104.216 47.2788C104.24 47.3568 104.255 47.4228 104.261 47.4768C104.267 47.5188 104.27 47.5578 104.27 47.5938C104.276 47.6298 104.279 47.6658 104.279 47.7018C104.279 48.0378 104.282 48.3708 104.288 48.7008C104.294 49.0308 104.297 49.3638 104.297 49.6998C104.297 50.1078 104.297 50.5278 104.297 50.9598C104.303 51.3918 104.306 51.8118 104.306 52.2198C104.306 52.3038 104.309 52.3938 104.315 52.4898C104.321 52.5858 104.321 52.6818 104.315 52.7778ZM112.838 47.5488C112.874 47.8368 112.895 48.1728 112.901 48.5568C112.907 48.9348 112.901 49.3188 112.883 49.7088C112.871 50.0928 112.844 50.4588 112.802 50.8068C112.76 51.1488 112.709 51.4248 112.649 51.6348C112.607 51.7608 112.556 51.8928 112.496 52.0308C112.442 52.1628 112.382 52.2828 112.316 52.3908C112.22 52.5528 112.103 52.6968 111.965 52.8228C111.827 52.9428 111.674 53.0478 111.506 53.1378C111.344 53.2218 111.17 53.2878 110.984 53.3358C110.804 53.3838 110.624 53.4108 110.444 53.4168C110.126 53.4288 109.823 53.3838 109.535 53.2818C109.253 53.1738 108.992 53.0058 108.752 52.7778C108.572 52.6038 108.428 52.4178 108.32 52.2198C108.212 52.0218 108.128 51.8148 108.068 51.5988C108.008 51.3768 107.969 51.1488 107.951 50.9148C107.939 50.6808 107.933 50.4408 107.933 50.1948C107.933 50.0808 107.93 49.9398 107.924 49.7718C107.924 49.5978 107.924 49.4208 107.924 49.2408C107.924 49.0548 107.924 48.8748 107.924 48.7008C107.924 48.5268 107.927 48.3798 107.933 48.2598C107.933 48.1818 107.933 48.0978 107.933 48.0078C107.933 47.9118 107.936 47.8188 107.942 47.7288C107.954 47.6328 107.972 47.5428 107.996 47.4588C108.02 47.3688 108.056 47.2878 108.104 47.2158C108.158 47.1378 108.233 47.0808 108.329 47.0448C108.425 47.0088 108.524 46.9908 108.626 46.9908C108.734 46.9908 108.836 47.0118 108.932 47.0538C109.028 47.0958 109.106 47.1558 109.166 47.2338C109.196 47.2818 109.217 47.3298 109.229 47.3778C109.241 47.4258 109.25 47.4798 109.256 47.5398C109.268 47.7378 109.274 47.9628 109.274 48.2148C109.28 48.4668 109.28 48.7128 109.274 48.9528C109.274 49.1868 109.271 49.4028 109.265 49.6008C109.259 49.7988 109.256 49.9458 109.256 50.0418C109.256 50.4018 109.274 50.7288 109.31 51.0228C109.346 51.3108 109.43 51.5508 109.562 51.7428C109.682 51.9168 109.823 52.0278 109.985 52.0758C110.147 52.1238 110.309 52.1388 110.471 52.1208C110.621 52.1028 110.771 52.0488 110.921 51.9588C111.077 51.8628 111.2 51.7248 111.29 51.5448C111.326 51.4788 111.356 51.4038 111.38 51.3198C111.404 51.2358 111.422 51.1578 111.434 51.0858C111.458 50.8578 111.479 50.5938 111.497 50.2938C111.515 49.9878 111.53 49.6758 111.542 49.3578C111.554 49.0398 111.56 48.7278 111.56 48.4218C111.56 48.1158 111.557 47.8398 111.551 47.5938C111.563 47.4858 111.596 47.3868 111.65 47.2968C111.698 47.2188 111.767 47.1498 111.857 47.0898C111.947 47.0298 112.07 46.9998 112.226 46.9998C112.352 47.0058 112.454 47.0388 112.532 47.0988C112.61 47.1528 112.673 47.2128 112.721 47.2788C112.775 47.3568 112.814 47.4468 112.838 47.5488ZM121.426 52.7418C121.42 52.8438 121.405 52.9518 121.381 53.0658C121.363 53.1798 121.306 53.2728 121.21 53.3448C121.138 53.4048 121.057 53.4408 120.967 53.4528C120.877 53.4648 120.787 53.4588 120.697 53.4348C120.613 53.4168 120.532 53.3868 120.454 53.3448C120.376 53.2968 120.313 53.2398 120.265 53.1738C120.061 52.9218 119.872 52.6638 119.698 52.3998C119.53 52.1298 119.359 51.8598 119.185 51.5898L118.429 50.4468C118.327 50.2848 118.219 50.1048 118.105 49.9068C117.991 49.7028 117.874 49.5138 117.754 49.3398L117.727 52.7778V52.8588C117.727 52.9548 117.709 53.0508 117.673 53.1468C117.643 53.2368 117.589 53.3148 117.511 53.3808C117.451 53.4288 117.373 53.4618 117.277 53.4798C117.127 53.5098 117.001 53.5008 116.899 53.4528C116.803 53.4048 116.725 53.3388 116.665 53.2548C116.611 53.1708 116.572 53.0748 116.548 52.9668C116.53 52.8528 116.527 52.7418 116.539 52.6338V52.4808L116.557 51.7788L116.566 50.4738C116.572 50.2818 116.575 50.0868 116.575 49.8888C116.575 49.6848 116.575 49.4778 116.575 49.2678C116.569 49.0098 116.569 48.7368 116.575 48.4488C116.587 48.1608 116.599 47.8908 116.611 47.6388C116.623 47.5008 116.656 47.3838 116.71 47.2878C116.734 47.2038 116.797 47.1318 116.899 47.0718C116.965 47.0298 117.049 47.0028 117.151 46.9908C117.259 46.9788 117.352 46.9818 117.43 46.9998C117.46 47.0118 117.49 47.0268 117.52 47.0448C117.55 47.0568 117.58 47.0718 117.61 47.0898C117.64 47.1138 117.667 47.1378 117.691 47.1618C117.721 47.1858 117.748 47.2128 117.772 47.2428C117.802 47.2728 117.829 47.3058 117.853 47.3418C117.877 47.3718 117.901 47.4018 117.925 47.4318C117.943 47.4678 117.961 47.5008 117.979 47.5308C117.997 47.5608 118.018 47.5908 118.042 47.6208L118.141 47.7648L120.22 51.0408V50.4468C120.22 50.2548 120.217 50.0598 120.211 49.8618C120.211 49.6578 120.208 49.4478 120.202 49.2318C120.202 48.9798 120.202 48.7098 120.202 48.4218C120.208 48.1338 120.217 47.8638 120.229 47.6118C120.229 47.5098 120.259 47.3928 120.319 47.2608C120.349 47.1828 120.4 47.1198 120.472 47.0718C120.544 47.0238 120.625 46.9908 120.715 46.9728C120.805 46.9548 120.895 46.9548 120.985 46.9728C121.075 46.9908 121.153 47.0268 121.219 47.0808C121.237 47.0988 121.255 47.1198 121.273 47.1438C121.291 47.1678 121.306 47.1948 121.318 47.2248C121.348 47.3028 121.366 47.3718 121.372 47.4318C121.39 47.5158 121.399 47.5908 121.399 47.6568C121.399 48.4068 121.399 49.1718 121.399 49.9518C121.405 50.7318 121.411 51.4968 121.417 52.2468C121.417 52.3308 121.42 52.4148 121.426 52.4988C121.432 52.5768 121.432 52.6578 121.426 52.7418ZM125.134 52.4718L125.143 51.7608L125.152 50.4378C125.158 50.2458 125.161 50.0478 125.161 49.8438C125.161 49.6398 125.161 49.4298 125.161 49.2138C125.161 48.9978 125.161 48.8058 125.161 48.6378C125.161 48.4698 125.167 48.2808 125.179 48.0708V48.0348C125.185 47.9748 125.188 47.9148 125.188 47.8548C125.194 47.7888 125.197 47.7228 125.197 47.6568C125.203 47.5488 125.236 47.4318 125.296 47.3058C125.338 47.2218 125.401 47.1498 125.485 47.0898C125.581 47.0418 125.674 47.0178 125.764 47.0178C125.812 47.0178 125.854 47.0208 125.89 47.0268C125.932 47.0268 125.971 47.0298 126.007 47.0358C126.085 47.0478 126.154 47.0838 126.214 47.1438C126.25 47.1738 126.283 47.2218 126.313 47.2878C126.325 47.3238 126.334 47.3598 126.34 47.3958C126.352 47.4258 126.361 47.4588 126.367 47.4948C126.373 47.5368 126.376 47.5758 126.376 47.6118C126.382 47.6478 126.385 47.6838 126.385 47.7198C126.385 47.7618 126.382 47.8008 126.376 47.8368C126.376 47.8668 126.376 47.8998 126.376 47.9358V48.0888L126.322 52.7598V52.8498C126.322 52.8678 126.319 52.8918 126.313 52.9218C126.313 52.9458 126.31 52.9758 126.304 53.0118C126.292 53.0418 126.28 53.0748 126.268 53.1108C126.262 53.1408 126.253 53.1738 126.241 53.2098C126.223 53.2398 126.202 53.2698 126.178 53.2998C126.16 53.3238 126.136 53.3478 126.106 53.3718C126.058 53.4198 125.98 53.4528 125.872 53.4708C125.71 53.5068 125.557 53.4918 125.413 53.4258C125.341 53.3778 125.29 53.3178 125.26 53.2458C125.242 53.2278 125.233 53.2098 125.233 53.1918C125.227 53.1798 125.221 53.1708 125.215 53.1648C125.209 53.1588 125.203 53.1498 125.197 53.1378C125.185 53.1078 125.176 53.0778 125.17 53.0478C125.164 53.0118 125.161 52.9758 125.161 52.9398C125.155 52.9098 125.149 52.8798 125.143 52.8498C125.143 52.8198 125.14 52.7898 125.134 52.7598C125.128 52.7118 125.128 52.6608 125.134 52.6068V52.4718ZM134.685 47.3328C134.751 47.4108 134.784 47.4918 134.784 47.5758C134.784 47.6118 134.781 47.6508 134.775 47.6928C134.775 47.7288 134.772 47.7618 134.766 47.7918C134.748 47.8578 134.709 47.9208 134.649 47.9808C134.601 48.0168 134.535 48.0438 134.451 48.0618C134.409 48.0738 134.367 48.0828 134.325 48.0888C134.283 48.0948 134.238 48.1038 134.19 48.1158C134.148 48.1218 134.106 48.1248 134.064 48.1248C134.022 48.1248 133.977 48.1248 133.929 48.1248H133.47C133.362 48.1308 133.254 48.1338 133.146 48.1338C133.044 48.1338 132.942 48.1338 132.84 48.1338C132.846 48.3198 132.849 48.5208 132.849 48.7368C132.849 48.9468 132.846 49.1928 132.84 49.4748C132.84 49.7568 132.837 50.0838 132.831 50.4558C132.831 50.8278 132.831 51.2598 132.831 51.7518V52.4358C132.831 52.4958 132.834 52.5408 132.84 52.5708C132.84 52.5948 132.84 52.6188 132.84 52.6428C132.84 52.6608 132.837 52.6848 132.831 52.7148C132.819 52.7688 132.81 52.8318 132.804 52.9038C132.804 52.9338 132.801 52.9638 132.795 52.9938C132.789 53.0178 132.78 53.0448 132.768 53.0748C132.744 53.0988 132.732 53.1168 132.732 53.1288L132.705 53.1828C132.675 53.2428 132.618 53.2998 132.534 53.3538C132.402 53.4198 132.255 53.4348 132.093 53.3988C131.991 53.3868 131.913 53.3598 131.859 53.3178C131.805 53.2638 131.766 53.2098 131.742 53.1558C131.706 53.0898 131.685 53.0268 131.679 52.9668C131.661 52.9128 131.652 52.8558 131.652 52.7958V48.1698C131.616 48.1698 131.541 48.1698 131.427 48.1698C131.313 48.1698 131.19 48.1698 131.058 48.1698C130.932 48.1638 130.812 48.1578 130.698 48.1518C130.584 48.1458 130.506 48.1398 130.464 48.1338C130.428 48.1278 130.371 48.1188 130.293 48.1068C130.221 48.0948 130.161 48.0828 130.113 48.0708C129.987 48.0348 129.888 47.9778 129.816 47.8998C129.75 47.8218 129.717 47.7348 129.717 47.6388C129.717 47.6028 129.717 47.5668 129.717 47.5308C129.717 47.4948 129.723 47.4618 129.735 47.4318C129.753 47.3598 129.801 47.2998 129.879 47.2518C129.903 47.2338 129.939 47.2128 129.987 47.1888C130.041 47.1588 130.092 47.1378 130.14 47.1258C130.212 47.1018 130.302 47.0838 130.41 47.0718C130.458 47.0658 130.506 47.0628 130.554 47.0628C130.602 47.0628 130.653 47.0628 130.707 47.0628C130.917 47.0628 131.115 47.0628 131.301 47.0628C131.493 47.0628 131.694 47.0598 131.904 47.0538C132.252 47.0478 132.597 47.0478 132.939 47.0538C133.287 47.0538 133.632 47.0598 133.974 47.0718C134.052 47.0778 134.127 47.0868 134.199 47.0988C134.271 47.1108 134.343 47.1318 134.415 47.1618C134.469 47.1798 134.52 47.2038 134.568 47.2338C134.616 47.2578 134.655 47.2908 134.685 47.3328ZM143.043 47.4408C143.049 47.4708 143.049 47.5008 143.043 47.5308C143.043 47.5608 143.034 47.5938 143.016 47.6298C142.992 47.7138 142.965 47.7888 142.935 47.8548C142.899 47.9388 142.854 48.0108 142.8 48.0708C142.776 48.1068 142.752 48.1428 142.728 48.1788C142.71 48.2088 142.692 48.2388 142.674 48.2688L142.557 48.4218L141.405 50.0868L141.198 50.3478V52.7418C141.186 52.7718 141.18 52.8018 141.18 52.8318C141.18 52.8618 141.177 52.8948 141.171 52.9308C141.159 52.9608 141.15 52.9908 141.144 53.0208C141.138 53.0448 141.129 53.0718 141.117 53.1018C141.105 53.1258 141.099 53.1438 141.099 53.1558C141.093 53.1678 141.087 53.1768 141.081 53.1828C141.081 53.1888 141.078 53.1978 141.072 53.2098C141.036 53.2698 140.985 53.3238 140.919 53.3718C140.787 53.4378 140.637 53.4528 140.469 53.4168C140.373 53.4048 140.301 53.3748 140.253 53.3268C140.223 53.3088 140.199 53.2878 140.181 53.2638C140.163 53.2398 140.145 53.2128 140.127 53.1828C140.115 53.1468 140.103 53.1138 140.091 53.0838C140.079 53.0538 140.07 53.0238 140.064 52.9938C140.052 52.9638 140.046 52.9368 140.046 52.9128C140.046 52.8828 140.046 52.8558 140.046 52.8318V50.3748L139.848 50.0688L138.678 48.4128L138.579 48.2508C138.543 48.1968 138.498 48.1338 138.444 48.0618C138.396 47.9958 138.354 47.9238 138.318 47.8458C138.294 47.8098 138.273 47.7738 138.255 47.7378C138.243 47.6958 138.231 47.6538 138.219 47.6118C138.201 47.5518 138.198 47.4918 138.21 47.4318C138.228 47.3538 138.264 47.2878 138.318 47.2338C138.378 47.1798 138.441 47.1378 138.507 47.1078C138.591 47.0478 138.687 47.0238 138.795 47.0358C138.861 47.0358 138.918 47.0478 138.966 47.0718C139.014 47.0958 139.062 47.1228 139.11 47.1528C139.164 47.1948 139.215 47.2398 139.263 47.2878C139.317 47.3358 139.365 47.3868 139.407 47.4408C139.455 47.5008 139.5 47.5578 139.542 47.6118C139.584 47.6598 139.626 47.7168 139.668 47.7828L139.695 47.8188C139.839 48.0108 139.974 48.1968 140.1 48.3768C140.226 48.5508 140.358 48.7398 140.496 48.9438C140.508 48.9558 140.526 48.9798 140.55 49.0158C140.574 49.0518 140.601 49.0938 140.631 49.1418C140.655 49.0998 140.676 49.0638 140.694 49.0338C140.718 48.9978 140.736 48.9738 140.748 48.9618C140.886 48.7578 141.018 48.5658 141.144 48.3858C141.27 48.2058 141.405 48.0198 141.549 47.8278L141.567 47.7918C141.615 47.7378 141.657 47.6838 141.693 47.6298C141.735 47.5698 141.78 47.5098 141.828 47.4498C141.906 47.3418 142.011 47.2488 142.143 47.1708C142.239 47.1048 142.338 47.0628 142.44 47.0448C142.554 47.0328 142.653 47.0568 142.737 47.1168C142.773 47.1408 142.806 47.1618 142.836 47.1798C142.872 47.1978 142.902 47.2188 142.926 47.2428C142.974 47.2968 143.013 47.3628 143.043 47.4408Z" fill="white"/>
</svg>
